<?xml version="1.0" encoding="UTF-8"?>
<!-- Generator: visioncortex VTracer 0.6.3 -->
<svg version="1.1" xmlns="http://www.w3.org/2000/svg" width="1177" height="755">
<path d="M0,0 L1177,0 L1177,755 L0,755 Z " fill="#000000" transform="translate(0,0)"/>
<path d="M0,0 L23,0 L31,5 L34,10 L39,20 L52,50 L61,69 L66,80 L68,85 L67,91 L55,109 L45,122 L32,138 L20,151 L-3,174 L-14,183 L-29,195 L-46,207 L-65,219 L-75,225 L-80,226 L-95,218 L-95,216 L-104,213 L-117,206 L-124,203 L-138,196 L-151,191 L-159,188 L-168,184 L-189,177 L-195,175 L-198,171 L-197,164 L-182,139 L-166,111 L-153,89 L-141,69 L-133,60 L-120,51 L-92,34 L-66,18 L-46,6 L-39,3 L-34,2 Z " fill="#FDFDFD" transform="translate(708,216)"/>
<path d="M0,0 L4,1 L17,11 L19,13 L18,28 L14,49 L10,65 L9,73 L5,83 L3,92 L-1,102 L-5,114 L-11,127 L-14,134 L-27,160 L-40,181 L-52,198 L-65,214 L-76,226 L-83,234 L-100,250 L-114,262 L-133,276 L-154,290 L-171,300 L-199,315 L-224,326 L-237,331 L-262,340 L-276,344 L-297,350 L-329,357 L-355,361 L-401,365 L-451,365 L-465,364 L-470,363 L-484,362 L-495,360 L-525,355 L-552,348 L-584,337 L-608,326 L-631,313 L-647,302 L-657,294 L-667,285 L-681,271 L-689,261 L-700,246 L-700,242 L-705,240 L-709,231 L-710,226 L-705,215 L-696,197 L-693,197 L-684,212 L-676,223 L-669,232 L-657,245 L-647,255 L-633,266 L-619,276 L-598,288 L-575,299 L-551,308 L-528,315 L-497,321 L-479,324 L-469,325 L-445,326 L-401,326 L-372,324 L-345,320 L-311,313 L-287,306 L-260,297 L-233,286 L-214,277 L-191,264 L-174,254 L-157,242 L-144,232 L-131,221 L-121,212 L-98,189 L-89,178 L-78,165 L-65,146 L-55,131 L-42,108 L-28,80 L-17,53 L-6,22 Z " fill="#FAFAFA" transform="translate(855,194)"/>
<path d="M0,0 L41,0 L58,2 L68,6 L74,11 L78,21 L79,30 L81,30 L86,55 L88,72 L88,98 L85,106 L84,108 L82,108 L80,114 L76,123 L74,127 L72,127 L70,133 L58,155 L51,161 L41,164 L24,167 L10,171 L1,174 L-12,179 L-19,181 L-26,184 L-29,184 L-29,186 L-39,190 L-60,201 L-77,212 L-83,216 L-88,217 L-96,217 L-103,215 L-109,210 L-113,202 L-119,186 L-123,174 L-125,165 L-129,158 L-131,151 L-135,142 L-138,134 L-143,124 L-144,120 L-144,107 L-139,99 L-127,87 L-119,80 L-108,70 L-94,59 L-76,45 L-46,25 L-27,14 L-4,2 Z " fill="#FDFDFD" transform="translate(450,191)"/>
<path d="M0,0 L14,1 L26,5 L32,8 L39,11 L57,21 L67,29 L76,36 L83,44 L90,52 L99,67 L103,75 L109,92 L110,93 L113,117 L113,142 L110,166 L107,172 L104,188 L101,192 L97,201 L88,217 L77,231 L68,241 L59,250 L46,260 L27,272 L21,274 L21,276 L3,283 L-5,286 L-19,291 L-24,292 L-40,292 L-41,287 L-29,272 L-21,256 L-18,244 L-18,224 L-22,202 L-29,183 L-36,167 L-46,150 L-55,136 L-66,120 L-65,115 L-52,97 L-41,80 L-27,56 L-19,41 L-7,14 L-3,4 L-2,1 Z " fill="#FDFDFD" transform="translate(858,349)"/>
<path d="M0,0 L41,0 L49,1 L50,2 L62,3 L66,5 L77,7 L97,14 L97,16 L103,18 L119,27 L130,36 L140,46 L147,56 L149,64 L152,65 L156,78 L156,88 L143,91 L120,95 L105,110 L88,123 L72,133 L50,144 L35,150 L22,154 L4,158 L-13,160 L-54,160 L-56,159 L-72,157 L-78,154 L-83,149 L-89,126 L-90,119 L-90,90 L-85,69 L-79,54 L-73,44 L-63,31 L-54,22 L-44,15 L-28,7 L-16,3 Z " fill="#FDFDFD" transform="translate(982,152)"/>
<path d="M0,0 L6,1 L16,5 L33,10 L47,14 L72,20 L95,24 L117,27 L149,29 L153,30 L151,35 L138,51 L131,59 L120,71 L110,80 L97,90 L87,97 L72,106 L55,115 L27,126 L9,131 L-24,136 L-65,136 L-84,134 L-90,133 L-87,123 L-85,114 L-78,100 L-74,90 L-72,86 L-70,86 L-67,77 L-54,57 L-45,45 L-36,34 L-21,18 L-9,7 Z " fill="#FDFDFD" transform="translate(258,553)"/>
<path d="M0,0 L43,0 L86,4 L118,10 L118,13 L116,13 L114,18 L101,41 L94,55 L91,62 L89,67 L87,75 L84,81 L80,94 L77,100 L75,100 L73,104 L66,110 L27,126 L23,127 L14,127 L4,123 L-3,116 L-3,114 L-5,114 L-10,100 L-10,98 L-12,98 L-15,90 L-22,78 L-27,73 L-31,70 L-31,68 L-41,66 L-58,64 L-81,60 L-94,58 L-102,55 L-108,50 L-114,39 L-115,31 L-116,30 L-116,24 L-104,19 L-91,15 L-78,11 L-66,9 L-62,7 L-45,4 L-28,3 L-17,1 Z " fill="#FDFDFD" transform="translate(567,103)"/>
<path d="M0,0 L3,0 L20,25 L26,34 L29,42 L32,47 L32,49 L34,49 L38,58 L45,73 L48,78 L51,86 L55,94 L58,106 L62,118 L65,126 L67,137 L73,164 L76,185 L77,206 L70,205 L45,196 L33,191 L12,180 L-6,168 L-16,160 L-30,148 L-43,134 L-54,119 L-65,100 L-66,93 L-60,81 L-38,48 L-27,33 L-14,17 L-6,7 Z " fill="#FCFCFC" transform="translate(240,271)"/>
<path d="M0,0 L22,0 L38,5 L45,7 L56,9 L62,11 L62,13 L71,14 L96,23 L108,28 L123,34 L132,38 L132,40 L141,43 L150,47 L164,54 L165,56 L146,64 L119,74 L104,78 L88,82 L63,87 L43,90 L16,92 L-38,92 L-60,90 L-86,86 L-104,82 L-102,77 L-93,65 L-82,53 L-67,38 L-50,25 L-36,16 L-15,5 Z " fill="#FCFCFC" transform="translate(438,400)"/>
<path d="M0,0 L7,1 L28,8 L36,11 L46,14 L56,19 L63,22 L72,26 L72,28 L80,30 L82,31 L82,33 L91,36 L104,44 L117,52 L118,53 L117,63 L112,86 L106,104 L103,113 L95,134 L91,140 L87,142 L80,142 L74,135 L61,109 L56,99 L51,86 L45,73 L41,70 L32,70 L-11,74 L-24,74 L-29,71 L-31,68 L-31,61 L-23,40 L-19,32 L-13,20 Z " fill="#FCFCFC" transform="translate(708,120)"/>
<path d="M0,0 L3,0 L3,32 L-5,42 L-24,54 L-44,68 L-63,82 L-79,95 L-89,103 L-103,115 L-115,126 L-122,129 L-133,129 L-140,126 L-157,117 L-163,114 L-163,112 L-155,105 L-141,91 L-133,84 L-120,73 L-103,60 L-84,46 L-62,32 L-41,20 L-28,13 L-20,11 L-20,9 Z " fill="#FBFBFB" transform="translate(424,136)"/>
<path d="M0,0 L3,1 L12,16 L19,26 L32,42 L39,49 L44,54 L55,64 L54,66 L35,70 L6,70 L-3,68 L-18,64 L-37,55 L-54,43 L-70,27 L-74,22 L-74,20 L-46,19 L-30,15 L-13,8 Z " fill="#FAFAFA" transform="translate(133,438)"/>
<path d="M0,0 L38,0 L54,3 L56,5 L51,10 L37,20 L24,26 L13,26 L0,23 L-11,18 L-23,11 L-27,8 L-27,6 L-18,3 Z " fill="#060606" transform="translate(1019,223)"/>
<path d="M0,0 L41,0 L58,2 L64,4 L64,5 L56,5 L48,3 L0,3 L-8,7 L-12,6 Z " fill="#D7D7D7" transform="translate(450,191)"/>
<path d="M0,0 L9,0 L12,3 L-7,3 L-33,6 L-38,7 L-55,7 L-58,4 L-43,4 Z " fill="#565656" transform="translate(740,189)"/>
<path d="M0,0 L23,2 L72,2 L72,3 L67,4 L50,5 L17,5 L9,3 L0,1 Z " fill="#606060" transform="translate(170,686)"/>
<path d="M0,0 L2,1 L-12,16 L-24,28 L-26,28 L-24,23 L-11,10 L-3,3 Z " fill="#CECECE" transform="translate(334,268)"/>
<path d="M0,0 L2,1 L-6,9 L-13,17 L-21,24 L-23,23 L-16,15 Z " fill="#C6C6C6" transform="translate(250,559)"/>
<path d="M0,0 L3,3 L6,19 L8,36 L8,44 L7,44 L3,18 L0,4 Z " fill="#464646" transform="translate(308,412)"/>
<path d="M0,0 L9,2 L35,6 L41,7 L41,8 L31,8 L16,5 L4,4 Z " fill="#4D4D4D" transform="translate(468,159)"/>
<path d="M0,0 L31,0 L31,1 L20,3 L3,3 Z " fill="#444444" transform="translate(682,193)"/>
<path d="M0,0 L2,1 L-6,9 L-13,17 L-18,22 L-22,23 L-22,21 L-14,14 Z " fill="#D1D1D1" transform="translate(283,227)"/>
<path d="M0,0 L7,1 L20,5 L20,6 L12,5 L3,3 L-1,7 L-3,7 L-3,10 L-6,11 L-4,6 Z " fill="#C5C6C6" transform="translate(708,120)"/>
<path d="M0,0 L8,0 L8,1 L-13,6 L-21,6 L-20,4 Z " fill="#A1A1A1" transform="translate(522,107)"/>
<path d="M0,0 L2,1 L0,5 L-9,14 L-13,15 L-9,9 Z " fill="#CCCDCC" transform="translate(928,174)"/>
<path d="M0,0 L2,1 L-13,17 L-17,18 L-11,11 Z " fill="#D8D8D8" transform="translate(371,438)"/>
<path d="M0,0 L7,1 L27,8 L23,9 L12,5 L2,3 Z " fill="#868686" transform="translate(1052,158)"/>
<path d="M0,0 L22,0 L22,1 L2,2 L-2,4 L-10,4 L-7,2 Z " fill="#909090" transform="translate(438,400)"/>
<path d="M0,0 L4,1 L-2,4 L-9,5 L-13,7 L-19,7 L-18,5 Z " fill="#565757" transform="translate(470,358)"/>
<path d="M0,0 L1,4 L-2,15 L-4,17 L-5,23 L-6,23 L-6,16 Z " fill="#9A9A9A" transform="translate(683,165)"/>
<path d="M0,0 L4,1 L-2,4 L-12,6 L-19,7 L-16,5 Z " fill="#A2A2A2" transform="translate(476,118)"/>
<path d="M0,0 L2,1 L-7,11 L-10,11 L-8,7 Z " fill="#C7C8C7" transform="translate(580,272)"/>
<path d="M0,0 L16,1 L22,3 L22,4 L14,4 L0,1 Z " fill="#C1C1C1" transform="translate(492,192)"/>
<path d="M0,0 L2,0 L2,2 L-1,2 L-2,5 L-8,9 L-12,8 Z " fill="#BEBEBE" transform="translate(351,175)"/>
<path d="M0,0 L8,0 L6,2 L-1,4 L-9,4 L-6,2 Z " fill="#B7B7B7" transform="translate(489,114)"/>
<path d="M0,0 L4,1 L-1,2 L1,9 L1,14 L-2,11 L-3,2 Z " fill="#747474" transform="translate(452,125)"/>
<path d="M0,0 L9,3 L14,6 L12,7 L7,6 L7,4 L0,3 Z " fill="#5B5B5B" transform="translate(561,408)"/>
<path d="M0,0 L2,1 L-8,7 L-12,6 Z " fill="#A5A5A5" transform="translate(954,159)"/>
<path d="M0,0 L20,0 L20,1 L3,2 L0,2 Z " fill="#E4E4E4" transform="translate(60,459)"/>
<path d="M0,0 L3,1 L2,3 L-3,5 L-8,6 L-4,2 Z " fill="#BBBBBB" transform="translate(133,438)"/>
<path d="M0,0 L3,0 L6,5 L5,7 L3,6 L3,3 L0,3 L0,6 L-2,6 Z " fill="#C3C3C3" transform="translate(159,391)"/>
<path d="M0,0 L2,0 L2,2 L-1,2 L-2,5 L-5,7 L-9,6 Z " fill="#BBBCBC" transform="translate(362,168)"/>
<path d="M0,0 L7,1 L11,4 L2,3 Z " fill="#AEAEAE" transform="translate(1052,158)"/>
<path d="M0,0 L4,1 L-2,4 L-8,4 L-7,2 Z " fill="#AFAFAF" transform="translate(966,155)"/>
<path d="M0,0 L3,0 L5,4 L-3,5 Z " fill="#C6C6C6" transform="translate(240,271)"/>
<path d="M0,0 L2,1 L-3,6 L-7,5 Z " fill="#444444" transform="translate(657,425)"/>
<path d="M0,0 L3,3 L3,13 L2,13 L0,4 Z " fill="#4B4B4B" transform="translate(308,412)"/>
<path d="M0,0 L4,1 L-1,2 L-2,6 L-5,4 L-5,2 Z " fill="#4A4A4A" transform="translate(997,227)"/>
<path d="M0,0 L0,3 L-4,8 L-8,7 Z " fill="#505050" transform="translate(641,205)"/>
<path d="M0,0 L1,4 L0,6 L-2,6 L-2,8 L-4,8 L-2,3 Z " fill="#B3B3B3" transform="translate(202,613)"/>
<path d="M0,0 L1,4 L-2,8 L-4,8 L-2,3 Z " fill="#B4B4B4" transform="translate(188,340)"/>
<path d="M0,0 L2,1 L-1,4 L-7,5 L-3,3 L-3,1 Z " fill="#C9C9C9" transform="translate(407,144)"/>
<path d="M0,0 L2,0 L2,2 L-1,2 L-2,5 L-6,4 Z " fill="#484848" transform="translate(345,649)"/>
<path d="M0,0 L2,0 L2,2 L-1,2 L-2,5 L-6,4 Z " fill="#4D4D4D" transform="translate(898,612)"/>
<path d="M0,0 L2,0 L2,2 L-1,2 L-2,5 L-6,4 Z " fill="#484848" transform="translate(373,402)"/>
<path d="M0,0 L2,0 L2,2 L-1,2 L-2,5 L-6,4 Z " fill="#474747" transform="translate(387,393)"/>
<path d="M0,0 L4,1 L-2,4 L-6,3 Z " fill="#404040" transform="translate(470,358)"/>
<path d="M0,0 L1,4 L-2,5 L-2,8 L-4,8 L-2,3 Z " fill="#ACACAC" transform="translate(183,348)"/>
<path d="M0,0 L2,0 L2,2 L-1,2 L-2,5 L-6,4 Z " fill="#3F3F3F" transform="translate(414,180)"/>
<path d="M0,0 L4,1 L-2,4 L-6,3 Z " fill="#C4C4C4" transform="translate(476,118)"/>
<path d="M0,0 L2,0 L2,2 L-1,4 L-5,3 Z " fill="#4A4A4A" transform="translate(332,657)"/>
<path d="M0,0 L2,1 L0,4 L-5,5 Z " fill="#454545" transform="translate(356,641)"/>
<path d="M0,0 L4,1 L1,3 L-5,3 L-2,1 Z " fill="#585858" transform="translate(871,627)"/>
<path d="M0,0 L2,1 L0,4 L-5,5 Z " fill="#4A4A4A" transform="translate(905,607)"/>
<path d="M0,0 L2,1 L0,4 L-5,5 Z " fill="#3D3E3E" transform="translate(723,468)"/>
<path d="M0,0 L2,1 L0,4 L-5,5 Z " fill="#3F3F3F" transform="translate(734,460)"/>
<path d="M0,0 L2,1 L-1,5 L-5,4 Z " fill="#BDBDBD" transform="translate(695,438)"/>
<path d="M0,0 L2,1 L0,4 L-5,5 Z " fill="#BEBEBE" transform="translate(392,422)"/>
<path d="M0,0 L2,0 L2,2 L-1,4 L-5,3 Z " fill="#BBBBBB" transform="translate(404,415)"/>
<path d="M0,0 L2,0 L2,2 L-1,4 L-5,3 Z " fill="#5B5B5B" transform="translate(403,384)"/>
<path d="M0,0 L2,1 L0,4 L-5,5 Z " fill="#C2C2C2" transform="translate(333,187)"/>
<path d="M0,0 L2,0 L2,2 L-1,4 L-5,3 Z " fill="#B3B3B3" transform="translate(374,161)"/>
<path d="M0,0 L2,0 L2,2 L-1,4 L-5,3 Z " fill="#B3B3B3" transform="translate(381,157)"/>
<path d="M0,0 L2,1 L0,4 L-4,3 Z " fill="#BCBCBC" transform="translate(682,447)"/>
<path d="M0,0 L2,1 L0,4 L-4,3 Z " fill="#BFBFBF" transform="translate(688,443)"/>
<path d="M0,0 L2,1 L0,4 L-4,3 Z " fill="#494949" transform="translate(663,421)"/>
<path d="M0,0 L2,1 L0,4 L-4,3 Z " fill="#3E3E3E" transform="translate(669,417)"/>
<path d="M0,0 L5,2 L2,4 Z " fill="#D4D4D4" transform="translate(598,453)"/>
<path d="M0,0 L3,1 L1,3 Z " fill="#D7D7D7" transform="translate(1096,177)"/>
<path d="M0,0 L3,1 L1,3 Z " fill="#D9D9D9" transform="translate(1091,174)"/>
<path d="M0,0 L3,1 L1,3 Z " fill="#D3D3D3" transform="translate(819,169)"/>
</svg>
